<mxfile host="app.diagrams.net" modified="2023-12-29T15:16:15.373Z" agent="Mozilla/5.0 (Windows NT 10.0; Win64; x64; rv:121.0) Gecko/20100101 Firefox/121.0" etag="tA9AKvCL-r92h2X19r91" version="22.1.15" type="device">
  <diagram name="Page-1" id="-mnQ1LQc80DusM6SmEaa">
    <mxGraphModel dx="1434" dy="1923" grid="1" gridSize="10" guides="1" tooltips="1" connect="1" arrows="1" fold="1" page="1" pageScale="1" pageWidth="827" pageHeight="1169" math="0" shadow="0">
      <root>
        <mxCell id="0" />
        <mxCell id="1" parent="0" />
        <mxCell id="QQ6xjxfJzIaPpWGa-xaG-78" value="" style="rounded=0;whiteSpace=wrap;html=1;" vertex="1" parent="1">
          <mxGeometry x="270" y="-30" width="710" height="370" as="geometry" />
        </mxCell>
        <mxCell id="QQ6xjxfJzIaPpWGa-xaG-62" style="edgeStyle=orthogonalEdgeStyle;rounded=0;orthogonalLoop=1;jettySize=auto;html=1;entryX=0;entryY=0.5;entryDx=0;entryDy=0;" edge="1" parent="1" source="QQ6xjxfJzIaPpWGa-xaG-1" target="QQ6xjxfJzIaPpWGa-xaG-61">
          <mxGeometry relative="1" as="geometry" />
        </mxCell>
        <mxCell id="QQ6xjxfJzIaPpWGa-xaG-1" value="" style="rounded=0;whiteSpace=wrap;html=1;" vertex="1" parent="1">
          <mxGeometry x="280" y="10" width="420" height="310" as="geometry" />
        </mxCell>
        <mxCell id="QQ6xjxfJzIaPpWGa-xaG-2" value="AdaptiveCNN" style="text;html=1;strokeColor=#6c8ebf;fillColor=#dae8fc;align=center;verticalAlign=middle;whiteSpace=wrap;rounded=0;" vertex="1" parent="1">
          <mxGeometry x="280" y="10" width="110" height="30" as="geometry" />
        </mxCell>
        <mxCell id="QQ6xjxfJzIaPpWGa-xaG-4" value="" style="shape=table;startSize=0;container=1;collapsible=0;childLayout=tableLayout;" vertex="1" parent="1">
          <mxGeometry x="40" y="70" width="120" height="120" as="geometry" />
        </mxCell>
        <mxCell id="QQ6xjxfJzIaPpWGa-xaG-5" value="" style="shape=tableRow;horizontal=0;startSize=0;swimlaneHead=0;swimlaneBody=0;strokeColor=inherit;top=0;left=0;bottom=0;right=0;collapsible=0;dropTarget=0;fillColor=none;points=[[0,0.5],[1,0.5]];portConstraint=eastwest;" vertex="1" parent="QQ6xjxfJzIaPpWGa-xaG-4">
          <mxGeometry width="120" height="40" as="geometry" />
        </mxCell>
        <mxCell id="QQ6xjxfJzIaPpWGa-xaG-6" value="" style="shape=partialRectangle;html=1;whiteSpace=wrap;connectable=0;strokeColor=inherit;overflow=hidden;fillColor=none;top=0;left=0;bottom=0;right=0;pointerEvents=1;" vertex="1" parent="QQ6xjxfJzIaPpWGa-xaG-5">
          <mxGeometry width="40" height="40" as="geometry">
            <mxRectangle width="40" height="40" as="alternateBounds" />
          </mxGeometry>
        </mxCell>
        <mxCell id="QQ6xjxfJzIaPpWGa-xaG-7" value="" style="shape=partialRectangle;html=1;whiteSpace=wrap;connectable=0;strokeColor=inherit;overflow=hidden;fillColor=none;top=0;left=0;bottom=0;right=0;pointerEvents=1;" vertex="1" parent="QQ6xjxfJzIaPpWGa-xaG-5">
          <mxGeometry x="40" width="40" height="40" as="geometry">
            <mxRectangle width="40" height="40" as="alternateBounds" />
          </mxGeometry>
        </mxCell>
        <mxCell id="QQ6xjxfJzIaPpWGa-xaG-8" value="" style="shape=partialRectangle;html=1;whiteSpace=wrap;connectable=0;strokeColor=inherit;overflow=hidden;fillColor=none;top=0;left=0;bottom=0;right=0;pointerEvents=1;" vertex="1" parent="QQ6xjxfJzIaPpWGa-xaG-5">
          <mxGeometry x="80" width="40" height="40" as="geometry">
            <mxRectangle width="40" height="40" as="alternateBounds" />
          </mxGeometry>
        </mxCell>
        <mxCell id="QQ6xjxfJzIaPpWGa-xaG-9" value="" style="shape=tableRow;horizontal=0;startSize=0;swimlaneHead=0;swimlaneBody=0;strokeColor=inherit;top=0;left=0;bottom=0;right=0;collapsible=0;dropTarget=0;fillColor=none;points=[[0,0.5],[1,0.5]];portConstraint=eastwest;" vertex="1" parent="QQ6xjxfJzIaPpWGa-xaG-4">
          <mxGeometry y="40" width="120" height="40" as="geometry" />
        </mxCell>
        <mxCell id="QQ6xjxfJzIaPpWGa-xaG-10" value="" style="shape=partialRectangle;html=1;whiteSpace=wrap;connectable=0;strokeColor=inherit;overflow=hidden;fillColor=none;top=0;left=0;bottom=0;right=0;pointerEvents=1;" vertex="1" parent="QQ6xjxfJzIaPpWGa-xaG-9">
          <mxGeometry width="40" height="40" as="geometry">
            <mxRectangle width="40" height="40" as="alternateBounds" />
          </mxGeometry>
        </mxCell>
        <mxCell id="QQ6xjxfJzIaPpWGa-xaG-11" value="" style="shape=partialRectangle;html=1;whiteSpace=wrap;connectable=0;strokeColor=inherit;overflow=hidden;fillColor=none;top=0;left=0;bottom=0;right=0;pointerEvents=1;" vertex="1" parent="QQ6xjxfJzIaPpWGa-xaG-9">
          <mxGeometry x="40" width="40" height="40" as="geometry">
            <mxRectangle width="40" height="40" as="alternateBounds" />
          </mxGeometry>
        </mxCell>
        <mxCell id="QQ6xjxfJzIaPpWGa-xaG-12" value="" style="shape=partialRectangle;html=1;whiteSpace=wrap;connectable=0;strokeColor=inherit;overflow=hidden;fillColor=none;top=0;left=0;bottom=0;right=0;pointerEvents=1;" vertex="1" parent="QQ6xjxfJzIaPpWGa-xaG-9">
          <mxGeometry x="80" width="40" height="40" as="geometry">
            <mxRectangle width="40" height="40" as="alternateBounds" />
          </mxGeometry>
        </mxCell>
        <mxCell id="QQ6xjxfJzIaPpWGa-xaG-13" value="" style="shape=tableRow;horizontal=0;startSize=0;swimlaneHead=0;swimlaneBody=0;strokeColor=inherit;top=0;left=0;bottom=0;right=0;collapsible=0;dropTarget=0;fillColor=none;points=[[0,0.5],[1,0.5]];portConstraint=eastwest;" vertex="1" parent="QQ6xjxfJzIaPpWGa-xaG-4">
          <mxGeometry y="80" width="120" height="40" as="geometry" />
        </mxCell>
        <mxCell id="QQ6xjxfJzIaPpWGa-xaG-14" value="" style="shape=partialRectangle;html=1;whiteSpace=wrap;connectable=0;strokeColor=inherit;overflow=hidden;fillColor=none;top=0;left=0;bottom=0;right=0;pointerEvents=1;" vertex="1" parent="QQ6xjxfJzIaPpWGa-xaG-13">
          <mxGeometry width="40" height="40" as="geometry">
            <mxRectangle width="40" height="40" as="alternateBounds" />
          </mxGeometry>
        </mxCell>
        <mxCell id="QQ6xjxfJzIaPpWGa-xaG-15" value="" style="shape=partialRectangle;html=1;whiteSpace=wrap;connectable=0;strokeColor=inherit;overflow=hidden;fillColor=none;top=0;left=0;bottom=0;right=0;pointerEvents=1;" vertex="1" parent="QQ6xjxfJzIaPpWGa-xaG-13">
          <mxGeometry x="40" width="40" height="40" as="geometry">
            <mxRectangle width="40" height="40" as="alternateBounds" />
          </mxGeometry>
        </mxCell>
        <mxCell id="QQ6xjxfJzIaPpWGa-xaG-16" value="" style="shape=partialRectangle;html=1;whiteSpace=wrap;connectable=0;strokeColor=inherit;overflow=hidden;fillColor=none;top=0;left=0;bottom=0;right=0;pointerEvents=1;" vertex="1" parent="QQ6xjxfJzIaPpWGa-xaG-13">
          <mxGeometry x="80" width="40" height="40" as="geometry">
            <mxRectangle width="40" height="40" as="alternateBounds" />
          </mxGeometry>
        </mxCell>
        <mxCell id="QQ6xjxfJzIaPpWGa-xaG-17" value="Current player" style="text;html=1;strokeColor=#6c8ebf;fillColor=#dae8fc;align=center;verticalAlign=middle;whiteSpace=wrap;rounded=0;" vertex="1" parent="1">
          <mxGeometry x="55" y="10" width="90" height="30" as="geometry" />
        </mxCell>
        <mxCell id="QQ6xjxfJzIaPpWGa-xaG-18" value="" style="shape=table;startSize=0;container=1;collapsible=0;childLayout=tableLayout;" vertex="1" parent="1">
          <mxGeometry x="80" y="340" width="40" height="80" as="geometry" />
        </mxCell>
        <mxCell id="QQ6xjxfJzIaPpWGa-xaG-19" value="" style="shape=tableRow;horizontal=0;startSize=0;swimlaneHead=0;swimlaneBody=0;strokeColor=inherit;top=0;left=0;bottom=0;right=0;collapsible=0;dropTarget=0;fillColor=none;points=[[0,0.5],[1,0.5]];portConstraint=eastwest;" vertex="1" parent="QQ6xjxfJzIaPpWGa-xaG-18">
          <mxGeometry width="40" height="40" as="geometry" />
        </mxCell>
        <mxCell id="QQ6xjxfJzIaPpWGa-xaG-20" value="" style="shape=partialRectangle;html=1;whiteSpace=wrap;connectable=0;strokeColor=inherit;overflow=hidden;fillColor=none;top=0;left=0;bottom=0;right=0;pointerEvents=1;" vertex="1" parent="QQ6xjxfJzIaPpWGa-xaG-19">
          <mxGeometry width="40" height="40" as="geometry">
            <mxRectangle width="40" height="40" as="alternateBounds" />
          </mxGeometry>
        </mxCell>
        <mxCell id="QQ6xjxfJzIaPpWGa-xaG-21" value="" style="shape=tableRow;horizontal=0;startSize=0;swimlaneHead=0;swimlaneBody=0;strokeColor=inherit;top=0;left=0;bottom=0;right=0;collapsible=0;dropTarget=0;fillColor=none;points=[[0,0.5],[1,0.5]];portConstraint=eastwest;" vertex="1" parent="QQ6xjxfJzIaPpWGa-xaG-18">
          <mxGeometry y="40" width="40" height="40" as="geometry" />
        </mxCell>
        <mxCell id="QQ6xjxfJzIaPpWGa-xaG-22" value="" style="shape=partialRectangle;html=1;whiteSpace=wrap;connectable=0;strokeColor=inherit;overflow=hidden;fillColor=none;top=0;left=0;bottom=0;right=0;pointerEvents=1;" vertex="1" parent="QQ6xjxfJzIaPpWGa-xaG-21">
          <mxGeometry width="40" height="40" as="geometry">
            <mxRectangle width="40" height="40" as="alternateBounds" />
          </mxGeometry>
        </mxCell>
        <mxCell id="QQ6xjxfJzIaPpWGa-xaG-23" value="Previous tile" style="text;html=1;strokeColor=none;fillColor=none;align=center;verticalAlign=middle;whiteSpace=wrap;rounded=0;" vertex="1" parent="1">
          <mxGeometry x="60" y="310" width="80" height="30" as="geometry" />
        </mxCell>
        <mxCell id="QQ6xjxfJzIaPpWGa-xaG-24" value="Board" style="text;html=1;strokeColor=none;fillColor=none;align=center;verticalAlign=middle;whiteSpace=wrap;rounded=0;" vertex="1" parent="1">
          <mxGeometry x="70" y="40" width="60" height="30" as="geometry" />
        </mxCell>
        <mxCell id="QQ6xjxfJzIaPpWGa-xaG-26" value="Current tiles" style="text;html=1;strokeColor=none;fillColor=none;align=center;verticalAlign=middle;whiteSpace=wrap;rounded=0;" vertex="1" parent="1">
          <mxGeometry x="65" y="460" width="80" height="30" as="geometry" />
        </mxCell>
        <mxCell id="QQ6xjxfJzIaPpWGa-xaG-27" value="" style="shape=table;startSize=0;container=1;collapsible=0;childLayout=tableLayout;" vertex="1" parent="1">
          <mxGeometry x="55" y="490" width="40" height="80" as="geometry" />
        </mxCell>
        <mxCell id="QQ6xjxfJzIaPpWGa-xaG-28" value="" style="shape=tableRow;horizontal=0;startSize=0;swimlaneHead=0;swimlaneBody=0;strokeColor=inherit;top=0;left=0;bottom=0;right=0;collapsible=0;dropTarget=0;fillColor=none;points=[[0,0.5],[1,0.5]];portConstraint=eastwest;" vertex="1" parent="QQ6xjxfJzIaPpWGa-xaG-27">
          <mxGeometry width="40" height="40" as="geometry" />
        </mxCell>
        <mxCell id="QQ6xjxfJzIaPpWGa-xaG-29" value="" style="shape=partialRectangle;html=1;whiteSpace=wrap;connectable=0;strokeColor=inherit;overflow=hidden;fillColor=none;top=0;left=0;bottom=0;right=0;pointerEvents=1;" vertex="1" parent="QQ6xjxfJzIaPpWGa-xaG-28">
          <mxGeometry width="40" height="40" as="geometry">
            <mxRectangle width="40" height="40" as="alternateBounds" />
          </mxGeometry>
        </mxCell>
        <mxCell id="QQ6xjxfJzIaPpWGa-xaG-30" value="" style="shape=tableRow;horizontal=0;startSize=0;swimlaneHead=0;swimlaneBody=0;strokeColor=inherit;top=0;left=0;bottom=0;right=0;collapsible=0;dropTarget=0;fillColor=none;points=[[0,0.5],[1,0.5]];portConstraint=eastwest;" vertex="1" parent="QQ6xjxfJzIaPpWGa-xaG-27">
          <mxGeometry y="40" width="40" height="40" as="geometry" />
        </mxCell>
        <mxCell id="QQ6xjxfJzIaPpWGa-xaG-31" value="" style="shape=partialRectangle;html=1;whiteSpace=wrap;connectable=0;strokeColor=inherit;overflow=hidden;fillColor=none;top=0;left=0;bottom=0;right=0;pointerEvents=1;" vertex="1" parent="QQ6xjxfJzIaPpWGa-xaG-30">
          <mxGeometry width="40" height="40" as="geometry">
            <mxRectangle width="40" height="40" as="alternateBounds" />
          </mxGeometry>
        </mxCell>
        <mxCell id="QQ6xjxfJzIaPpWGa-xaG-32" value="" style="shape=table;startSize=0;container=1;collapsible=0;childLayout=tableLayout;" vertex="1" parent="1">
          <mxGeometry x="105" y="490" width="40" height="80" as="geometry" />
        </mxCell>
        <mxCell id="QQ6xjxfJzIaPpWGa-xaG-33" value="" style="shape=tableRow;horizontal=0;startSize=0;swimlaneHead=0;swimlaneBody=0;strokeColor=inherit;top=0;left=0;bottom=0;right=0;collapsible=0;dropTarget=0;fillColor=none;points=[[0,0.5],[1,0.5]];portConstraint=eastwest;" vertex="1" parent="QQ6xjxfJzIaPpWGa-xaG-32">
          <mxGeometry width="40" height="40" as="geometry" />
        </mxCell>
        <mxCell id="QQ6xjxfJzIaPpWGa-xaG-34" value="" style="shape=partialRectangle;html=1;whiteSpace=wrap;connectable=0;strokeColor=inherit;overflow=hidden;fillColor=none;top=0;left=0;bottom=0;right=0;pointerEvents=1;" vertex="1" parent="QQ6xjxfJzIaPpWGa-xaG-33">
          <mxGeometry width="40" height="40" as="geometry">
            <mxRectangle width="40" height="40" as="alternateBounds" />
          </mxGeometry>
        </mxCell>
        <mxCell id="QQ6xjxfJzIaPpWGa-xaG-35" value="" style="shape=tableRow;horizontal=0;startSize=0;swimlaneHead=0;swimlaneBody=0;strokeColor=inherit;top=0;left=0;bottom=0;right=0;collapsible=0;dropTarget=0;fillColor=none;points=[[0,0.5],[1,0.5]];portConstraint=eastwest;" vertex="1" parent="QQ6xjxfJzIaPpWGa-xaG-32">
          <mxGeometry y="40" width="40" height="40" as="geometry" />
        </mxCell>
        <mxCell id="QQ6xjxfJzIaPpWGa-xaG-36" value="" style="shape=partialRectangle;html=1;whiteSpace=wrap;connectable=0;strokeColor=inherit;overflow=hidden;fillColor=none;top=0;left=0;bottom=0;right=0;pointerEvents=1;" vertex="1" parent="QQ6xjxfJzIaPpWGa-xaG-35">
          <mxGeometry width="40" height="40" as="geometry">
            <mxRectangle width="40" height="40" as="alternateBounds" />
          </mxGeometry>
        </mxCell>
        <mxCell id="QQ6xjxfJzIaPpWGa-xaG-37" value="" style="endArrow=none;dashed=1;html=1;dashPattern=1 3;strokeWidth=2;rounded=0;" edge="1" parent="1">
          <mxGeometry width="50" height="50" relative="1" as="geometry">
            <mxPoint x="155" y="529.5799999999999" as="sourcePoint" />
            <mxPoint x="195" y="529.5799999999999" as="targetPoint" />
          </mxGeometry>
        </mxCell>
        <mxCell id="QQ6xjxfJzIaPpWGa-xaG-54" style="edgeStyle=orthogonalEdgeStyle;rounded=0;orthogonalLoop=1;jettySize=auto;html=1;entryX=0.5;entryY=0;entryDx=0;entryDy=0;fillColor=#f8cecc;strokeColor=#b85450;" edge="1" parent="1" source="QQ6xjxfJzIaPpWGa-xaG-38" target="QQ6xjxfJzIaPpWGa-xaG-53">
          <mxGeometry relative="1" as="geometry">
            <Array as="points">
              <mxPoint x="460" y="120" />
              <mxPoint x="460" y="120" />
            </Array>
          </mxGeometry>
        </mxCell>
        <mxCell id="QQ6xjxfJzIaPpWGa-xaG-38" value="Auxiliary information" style="rounded=0;whiteSpace=wrap;html=1;fillColor=#f8cecc;strokeColor=#b85450;" vertex="1" parent="1">
          <mxGeometry x="310" y="50" width="360" height="60" as="geometry" />
        </mxCell>
        <mxCell id="QQ6xjxfJzIaPpWGa-xaG-41" style="edgeStyle=orthogonalEdgeStyle;rounded=0;orthogonalLoop=1;jettySize=auto;html=1;entryX=0;entryY=0.5;entryDx=0;entryDy=0;fillColor=#f8cecc;strokeColor=#b85450;exitX=0.1;exitY=0.5;exitDx=0;exitDy=0;exitPerimeter=0;" edge="1" parent="1" source="QQ6xjxfJzIaPpWGa-xaG-40" target="QQ6xjxfJzIaPpWGa-xaG-38">
          <mxGeometry relative="1" as="geometry">
            <mxPoint x="290" y="460" as="sourcePoint" />
            <Array as="points">
              <mxPoint x="260" y="430" />
              <mxPoint x="260" y="80" />
            </Array>
          </mxGeometry>
        </mxCell>
        <mxCell id="QQ6xjxfJzIaPpWGa-xaG-40" value="" style="shape=curlyBracket;whiteSpace=wrap;html=1;rounded=1;flipH=1;labelPosition=right;verticalLabelPosition=middle;align=left;verticalAlign=middle;fillColor=#f8cecc;strokeColor=#b85450;" vertex="1" parent="1">
          <mxGeometry x="200" y="240" width="20" height="380" as="geometry" />
        </mxCell>
        <mxCell id="QQ6xjxfJzIaPpWGa-xaG-52" style="edgeStyle=orthogonalEdgeStyle;rounded=0;orthogonalLoop=1;jettySize=auto;html=1;entryX=0;entryY=0.5;entryDx=0;entryDy=0;fillColor=#d5e8d4;strokeColor=#82b366;" edge="1" parent="1" source="QQ6xjxfJzIaPpWGa-xaG-42" target="QQ6xjxfJzIaPpWGa-xaG-43">
          <mxGeometry relative="1" as="geometry" />
        </mxCell>
        <mxCell id="QQ6xjxfJzIaPpWGa-xaG-42" value="Conv1" style="rounded=0;whiteSpace=wrap;html=1;fillColor=#d5e8d4;strokeColor=#82b366;" vertex="1" parent="1">
          <mxGeometry x="320" y="230" width="80" height="60" as="geometry" />
        </mxCell>
        <mxCell id="QQ6xjxfJzIaPpWGa-xaG-43" value="Conv2" style="rounded=0;whiteSpace=wrap;html=1;fillColor=#d5e8d4;strokeColor=#82b366;" vertex="1" parent="1">
          <mxGeometry x="420" y="230" width="80" height="60" as="geometry" />
        </mxCell>
        <mxCell id="QQ6xjxfJzIaPpWGa-xaG-47" value="" style="endArrow=none;dashed=1;html=1;dashPattern=1 3;strokeWidth=2;rounded=0;" edge="1" parent="1">
          <mxGeometry width="50" height="50" relative="1" as="geometry">
            <mxPoint x="520" y="259.5" as="sourcePoint" />
            <mxPoint x="560" y="259.5" as="targetPoint" />
          </mxGeometry>
        </mxCell>
        <mxCell id="QQ6xjxfJzIaPpWGa-xaG-49" style="edgeStyle=orthogonalEdgeStyle;rounded=0;orthogonalLoop=1;jettySize=auto;html=1;entryX=0.5;entryY=0;entryDx=0;entryDy=0;fillColor=#f8cecc;strokeColor=#b85450;" edge="1" parent="1" source="QQ6xjxfJzIaPpWGa-xaG-38" target="QQ6xjxfJzIaPpWGa-xaG-50">
          <mxGeometry relative="1" as="geometry">
            <Array as="points">
              <mxPoint x="360" y="120" />
              <mxPoint x="360" y="120" />
            </Array>
          </mxGeometry>
        </mxCell>
        <mxCell id="QQ6xjxfJzIaPpWGa-xaG-56" style="edgeStyle=orthogonalEdgeStyle;rounded=0;orthogonalLoop=1;jettySize=auto;html=1;entryX=0.5;entryY=0;entryDx=0;entryDy=0;fillColor=#f8cecc;strokeColor=#b85450;" edge="1" parent="1" source="QQ6xjxfJzIaPpWGa-xaG-50" target="QQ6xjxfJzIaPpWGa-xaG-42">
          <mxGeometry relative="1" as="geometry" />
        </mxCell>
        <mxCell id="QQ6xjxfJzIaPpWGa-xaG-50" value="FMN1" style="rounded=0;whiteSpace=wrap;html=1;fillColor=#f8cecc;strokeColor=#b85450;" vertex="1" parent="1">
          <mxGeometry x="330" y="140" width="60" height="60" as="geometry" />
        </mxCell>
        <mxCell id="QQ6xjxfJzIaPpWGa-xaG-58" style="edgeStyle=orthogonalEdgeStyle;rounded=0;orthogonalLoop=1;jettySize=auto;html=1;entryX=0.5;entryY=0;entryDx=0;entryDy=0;fillColor=#f8cecc;strokeColor=#b85450;" edge="1" parent="1" source="QQ6xjxfJzIaPpWGa-xaG-53" target="QQ6xjxfJzIaPpWGa-xaG-43">
          <mxGeometry relative="1" as="geometry" />
        </mxCell>
        <mxCell id="QQ6xjxfJzIaPpWGa-xaG-53" value="FMN2" style="rounded=0;whiteSpace=wrap;html=1;fillColor=#f8cecc;strokeColor=#b85450;" vertex="1" parent="1">
          <mxGeometry x="430" y="140" width="60" height="60" as="geometry" />
        </mxCell>
        <mxCell id="QQ6xjxfJzIaPpWGa-xaG-57" value="w+b" style="text;html=1;strokeColor=#b85450;fillColor=#f8cecc;align=center;verticalAlign=middle;whiteSpace=wrap;rounded=0;" vertex="1" parent="1">
          <mxGeometry x="370" y="210" width="30" height="10" as="geometry" />
        </mxCell>
        <mxCell id="QQ6xjxfJzIaPpWGa-xaG-59" style="edgeStyle=orthogonalEdgeStyle;rounded=0;orthogonalLoop=1;jettySize=auto;html=1;entryX=0;entryY=0.5;entryDx=0;entryDy=0;fillColor=#d5e8d4;strokeColor=#82b366;" edge="1" parent="1" source="QQ6xjxfJzIaPpWGa-xaG-9" target="QQ6xjxfJzIaPpWGa-xaG-42">
          <mxGeometry relative="1" as="geometry" />
        </mxCell>
        <mxCell id="QQ6xjxfJzIaPpWGa-xaG-60" value="" style="endArrow=none;dashed=1;html=1;dashPattern=1 3;strokeWidth=2;rounded=0;" edge="1" parent="1">
          <mxGeometry width="50" height="50" relative="1" as="geometry">
            <mxPoint x="520" y="169.57999999999998" as="sourcePoint" />
            <mxPoint x="560" y="169.57999999999998" as="targetPoint" />
          </mxGeometry>
        </mxCell>
        <mxCell id="QQ6xjxfJzIaPpWGa-xaG-66" style="edgeStyle=orthogonalEdgeStyle;rounded=0;orthogonalLoop=1;jettySize=auto;html=1;entryX=0;entryY=0.5;entryDx=0;entryDy=0;" edge="1" parent="1" source="QQ6xjxfJzIaPpWGa-xaG-61" target="QQ6xjxfJzIaPpWGa-xaG-64">
          <mxGeometry relative="1" as="geometry" />
        </mxCell>
        <mxCell id="QQ6xjxfJzIaPpWGa-xaG-61" value="" style="rounded=0;whiteSpace=wrap;html=1;" vertex="1" parent="1">
          <mxGeometry x="750" y="55" width="50" height="220" as="geometry" />
        </mxCell>
        <mxCell id="QQ6xjxfJzIaPpWGa-xaG-70" style="edgeStyle=orthogonalEdgeStyle;rounded=0;orthogonalLoop=1;jettySize=auto;html=1;" edge="1" parent="1" source="QQ6xjxfJzIaPpWGa-xaG-64">
          <mxGeometry relative="1" as="geometry">
            <mxPoint x="1000" y="165" as="targetPoint" />
          </mxGeometry>
        </mxCell>
        <mxCell id="QQ6xjxfJzIaPpWGa-xaG-64" value="" style="rounded=0;whiteSpace=wrap;html=1;" vertex="1" parent="1">
          <mxGeometry x="850" y="55" width="110" height="220" as="geometry" />
        </mxCell>
        <mxCell id="QQ6xjxfJzIaPpWGa-xaG-65" value="FC" style="text;html=1;strokeColor=#6c8ebf;fillColor=#dae8fc;align=center;verticalAlign=middle;whiteSpace=wrap;rounded=0;" vertex="1" parent="1">
          <mxGeometry x="850" y="55" width="110" height="30" as="geometry" />
        </mxCell>
        <mxCell id="QQ6xjxfJzIaPpWGa-xaG-68" value="Action evaluated a" style="text;html=1;strokeColor=none;fillColor=none;align=center;verticalAlign=middle;whiteSpace=wrap;rounded=0;" vertex="1" parent="1">
          <mxGeometry x="55" y="250" width="115" height="30" as="geometry" />
        </mxCell>
        <mxCell id="QQ6xjxfJzIaPpWGa-xaG-71" value="Q(s,a)" style="text;html=1;strokeColor=none;fillColor=none;align=center;verticalAlign=middle;whiteSpace=wrap;rounded=0;" vertex="1" parent="1">
          <mxGeometry x="1000" y="150" width="60" height="30" as="geometry" />
        </mxCell>
        <mxCell id="QQ6xjxfJzIaPpWGa-xaG-72" value="(batch, 2, 9, 9)" style="text;html=1;strokeColor=#9673a6;fillColor=#e1d5e7;align=center;verticalAlign=middle;whiteSpace=wrap;rounded=0;" vertex="1" parent="1">
          <mxGeometry x="60" y="190" width="80" height="30" as="geometry" />
        </mxCell>
        <mxCell id="QQ6xjxfJzIaPpWGa-xaG-73" value="n_players + 4" style="text;html=1;strokeColor=#9673a6;fillColor=#e1d5e7;align=center;verticalAlign=middle;whiteSpace=wrap;rounded=0;" vertex="1" parent="1">
          <mxGeometry x="60" y="275" width="80" height="30" as="geometry" />
        </mxCell>
        <mxCell id="QQ6xjxfJzIaPpWGa-xaG-75" value="TILE_ENCODING_SIZE" style="text;html=1;strokeColor=#9673a6;fillColor=#e1d5e7;align=center;verticalAlign=middle;whiteSpace=wrap;rounded=0;" vertex="1" parent="1">
          <mxGeometry x="35" y="430" width="135" height="30" as="geometry" />
        </mxCell>
        <mxCell id="QQ6xjxfJzIaPpWGa-xaG-76" value="n_players x (TILE_ENCODING_SIZE + 1)" style="text;html=1;strokeColor=#9673a6;fillColor=#e1d5e7;align=center;verticalAlign=middle;whiteSpace=wrap;rounded=0;" vertex="1" parent="1">
          <mxGeometry x="35" y="580" width="165" height="30" as="geometry" />
        </mxCell>
        <mxCell id="QQ6xjxfJzIaPpWGa-xaG-79" value="CNN+FC" style="text;html=1;strokeColor=#6c8ebf;fillColor=#dae8fc;align=center;verticalAlign=middle;whiteSpace=wrap;rounded=0;" vertex="1" parent="1">
          <mxGeometry x="270" y="-30" width="150" height="30" as="geometry" />
        </mxCell>
      </root>
    </mxGraphModel>
  </diagram>
</mxfile>
